<?xml version="1.0" encoding="UTF-8" standalone="no"?>
<svg
   width="444.76828"
   height="273.8782"
   version="1.1"
   viewBox="52 845 444.76828 273.8782"
   id="svg38"
   sodipodi:docname="attack-6806140.svg"
   inkscape:export-filename="attack-6806140.png"
   inkscape:export-xdpi="467.18625"
   inkscape:export-ydpi="467.18625"
   inkscape:version="1.4.2 (ebf0e940d0, 2025-05-08)"
   xmlns:inkscape="http://www.inkscape.org/namespaces/inkscape"
   xmlns:sodipodi="http://sodipodi.sourceforge.net/DTD/sodipodi-0.dtd"
   xmlns="http://www.w3.org/2000/svg"
   xmlns:svg="http://www.w3.org/2000/svg">
  <defs
     id="defs38" />
  <sodipodi:namedview
     id="namedview38"
     pagecolor="#ffffff"
     bordercolor="#000000"
     borderopacity="0.25"
     inkscape:showpageshadow="2"
     inkscape:pageopacity="0.0"
     inkscape:pagecheckerboard="true"
     inkscape:deskcolor="#d1d1d1"
     inkscape:zoom="0.87776141"
     inkscape:cx="204.49748"
     inkscape:cy="267.72651"
     inkscape:window-width="2560"
     inkscape:window-height="1403"
     inkscape:window-x="0"
     inkscape:window-y="0"
     inkscape:window-maximized="1"
     inkscape:current-layer="svg38" />
  <g
     id="g40"
     transform="translate(-504.64272,-211.8964)">
    <g
       fill="#71cfeb"
       id="g10"
       style="stroke-linejoin:miter">
      <path
         d="m 689.08,1233.5 c 4.9202,-0.7274 8.3304,-5.3226 7.6026,-10.243 -0.72746,-4.9199 -5.3218,-8.3306 -10.242,-7.6033 -4.92,0.7277 -8.3306,5.3227 -7.6028,10.243 0.72804,4.9204 5.3225,8.3315 10.242,7.6037 z"
         id="path9" />
      <path
         d="m 694.85,1231.8 c -1.5492,1.639 -3.6348,2.7912 -6.0334,3.1459 -2.3391,0.3462 -4.6143,-0.1192 -6.5405,-1.182 -5.5154,1.749 -9.1067,7.2861 -8.233,13.194 0.9702,6.5592 5.6563,1.509 12.214,0.5387 l 9.58,-1.4165 c 6.5588,-0.9701 12.506,2.5079 11.536,-4.0517 -0.91495,-6.1868 -6.3992,-10.567 -12.524,-10.229 z"
         id="path10" />
    </g>
    <g
       fill="#ffffff"
       id="g11"
       style="stroke-linejoin:miter"
       transform="matrix(1.2234007,0,0,0.81392065,-171.14569,223.50066)">
      <path
         d="m 594.88965,1224.1 78.64894,-11.498 78.64993,-11.498 q 4.72749,68.159 9.45483,136.32 l -157.29587,22.996 q -4.72749,-68.159 -9.45583,-136.32"
         id="path11" />
    </g>
    <g
       fill="#fbbb8c"
       id="g29"
       style="stroke-linejoin:miter">
      <path
         d="m 711.44,1105.6 1.5e-4,-10e-4 v -7e-4 l 2.5e-4,7e-4 v -7e-4 c 1.9493,0.3576 4.0815,0.7955 4.7372,0.9226 2.6007,0.5028 10.166,1.6098 12.597,1.8788 1.4598,0.1616 4.075,0.515 5.84,0.7874 3.9254,0.6057 22.172,2.3791 26.937,2.6875 1.9018,0.123 4.0793,0.3011 4.898,0.3754 0.8015,0.073 3.1065,0.1838 5.1555,0.2612 2.0634,0.078 4.8626,0.2031 6.2948,0.2891 6.9487,0.4158 31.884,-4.2833 39.67,-7.4707 9.3338,-3.8194 12.466,-5.0365 15.108,-5.8756 1.5881,-0.5047 4.5189,-1.5743 6.5478,-2.3734 1.9785,-0.7781 6.2735,-2.0797 9.5505,-2.8752 7.9764,-1.5724 17.298,-1.1562 17.298,-1.1562 2.6921,0.1199 7.0317,0.2937 11.72,0.4897 7.0322,0.2939 9.039,0.4215 10.605,0.5698 0.9223,0.087 2.65,0.165 3.7229,0.1849 3.8197,0.074 7.138,0.2833 8.3151,0.4596 0.6399,0.096 2.717,0.2273 4.6047,0.328 6.4809,0.3469 -37.664,-1.6371 0.42987,-0.1705 l 20.463,3.477 c 6.5502,71.419 -1.139,69.464 -1.139,69.464 -0.71903,-0.1825 -1.6835,-0.4936 -2.1829,-0.6438 -0.4733,-0.1428 -1.3238,-0.3025 -1.787,-0.3924 -0.48572,-0.094 -3.5866,-0.8391 -6.8784,-1.6306 -3.2927,-0.7919 -7.5862,-1.7563 -9.535,-2.1119 -1.949,-0.3573 -4.6013,-0.8574 -5.9127,-1.111 -7.0954,-1.3743 -12.556,-1.9373 -20.367,-2.1778 -3.0815,-0.095 -9.2363,1.2616 -11.487,2.5731 -2.9599,1.7249 -5.6469,3.913 -7.7586,6.3248 -2.0822,2.3789 -3.3664,3.6937 -4.5658,4.6476 -0.3872,0.3079 -1.9722,1.805 -3.5136,3.2789 -7.2742,6.9579 -14.468,11.032 -31.89,18.188 -12.607,5.1778 -23.344,12.042 -30.731,19.57 -1.3746,1.4011 -3.023,2.9814 -3.5847,3.4644 -0.86219,0.7424 -6.3343,7.091 -9.3028,10.806 -0.8354,1.0451 -6.7848,9.2534 -10.592,14.662 -2.724,3.8703 -6.3664,6.9714 -8.1883,6.9316 -3.6987,-0.082 -7.7454,-3.9856 -8.7358,-8.4077 -0.54347,-2.4272 -0.27723,-8.4032 0.3982,-9.094 0.2471,-0.2532 0.32854,-0.8111 0.2316,-1.2425 -0.2172,-0.9696 2.2694,-6.7962 5.2188,-12.098 2.3395,-4.208 9.2953,-14.099 13.06,-18.557 1.248,-1.4782 2.4644,-2.9252 2.6801,-3.2059 1.3635,-1.772 9.4177,-10.548 9.6868,-10.609 0.16225,-0.036 0.94305,-0.7937 1.718,-1.6872 2.151,-2.4804 8.4556,-8.5199 8.9953,-8.6403 0.32364,-0.073 0.85164,-0.7092 1.2263,-1.3513 0.68956,-1.182 0.3395,-1.2658 -10.47,-2.2424 -6.1267,-0.5533 -11.784,-1.0611 -12.602,-1.1412 -7.9845,-0.7804 -21.286,1.547 -27.806,4.8118 -4.7344,2.3718 -11.632,6.266 -13.421,7.5938 -0.83376,0.6189 -1.7727,1.1901 -2.0962,1.2633 -0.3235,0.072 -0.96933,0.4517 -1.4433,0.8897 -0.41806,0.3855 -2.5656,1.902 -4.7358,3.3819 -5.494,3.7477 -7.0776,4.8139 -12.609,8.9416 -1.8436,1.3749 -3.5084,2.5415 -3.7777,2.6019 -0.2699,0.06 -1.0676,0.5685 -1.8265,1.2022 -2.39,1.9967 -4.8909,3.7002 -5.6459,3.869 -0.4313,0.097 -0.89085,0.4561 -1.1317,0.7637 -0.2455,0.3138 -1.6943,1.2856 -3.1913,2.1871 -1.4971,0.9022 -3.2884,1.9917 -3.9342,2.4103 -0.68935,0.4471 -3.2663,1.6167 -5.7502,2.6479 -4.0453,1.6772 -4.9541,1.8752 -8.8567,1.9266 -9.5369,0.1265 -14.688,-2.9322 -13.212,-7.9143 0.8781,-2.9648 3.581,-4.9675 11.746,-8.7477 9.8459,-4.5589 17.145,-9.6737 21.105,-14.751 3.2117,-4.1184 11.618,-12.661 17.025,-17.293 6.9475,-5.9512 6.9034,-6.6023 -0.43974,-4.999 -2.7544,0.601 -6.9877,1.1688 -9.4568,1.2688 -2.47,0.1002 -5.2512,0.3263 -6.114,0.52 -2.5346,0.5677 -9.6399,0.4762 -15.052,-0.1966 -8.57,-1.0658 -16.282,-3.6573 -20.998,-7.0202 -4.6528,-3.3167 -5.649,-6.6804 -3.1592,-10.562 1.5824,-2.4682 2.563,-2.7325 5.6979,-1.6169 1.3577,0.4829 2.7825,0.7932 3.1599,0.7085 0.3775,-0.084 0.96526,0.01 1.2953,0.2198 0.9239,0.5856 14.487,2.4754 15.781,2.1851 0.59334,-0.1327 2.2403,-0.094 3.6986,0.078 2.8461,0.3357 16.806,-2.5843 20.835,-4.3272 2.219,-0.96 2.6097,-2.5031 0.59593,-2.3989 -0.61723,0.032 -3.493,-0.2019 -6.343,-0.5053 -19.429,-2.068 -30.363,-7.359 -26.007,-12.694 1.6429,-2.0121 2.8792,-2.5968 5.546,-2.5448 2.4527,0.048 7.4804,0.016 15.573,-0.2601 2.6432,-0.09 5.9042,-0.1514 7.3256,-0.1686 2.5898,-0.032 6.8452,-0.2765 13.684,-0.8562 2.1103,-0.1793 5.0223,-0.3536 6.4309,-0.3646 3.5669,-0.028 9.9571,-0.8958 10.494,-1.4446 0.38645,-0.3952 -3.5227,-2.3259 -4.3315,-2.1444 -0.1616,0.036 -1.2652,-0.3402 -2.4055,-0.8771 -1.1398,-0.5378 -2.2429,-0.9142 -2.4049,-0.8768 -0.2155,0.048 -1.4725,-0.4459 -2.7896,-1.0753 -1.3469,-0.6429 -2.6268,-1.1099 -2.8426,-1.0619 -0.2701,0.06 -1.5178,-0.4536 -2.7476,-1.1405 -1.2302,-0.687 -2.988,-1.4025 -3.821,-1.6353 -1.6441,-0.4584 -6.4141,-3.6041 -6.5956,-4.4128 -0.0603,-0.2694 0.18114,-1.0836 0.55455,-1.8229 1.079,-2.1353 3.838,-2.8422 7.9088,-2.1116 l 4e-4,-10e-4 -4e-4,10e-4 1.5e-4,-10e-4 -1.5e-4,10e-4 z"
         id="path29" />
    </g>
    <g
       id="g30"
       style="stroke-linejoin:miter">
      <path
         d="m 1001.4,1056.9 -142.25,12.948 11.049,121.39 131.21,-11.939 -0.01,-122.4 z"
         id="path30" />
    </g>
    <g
       fill="#ffffff"
       id="g33"
       style="stroke-linejoin:miter">
      <path
         d="m 1001.4,1056.9 -11.187,1.0184 11.049,121.39 0.149,-0.012 -0.01,-122.4 z"
         id="path31" />
      <path
         d="m 944.3,1184.5 q -5.5238,-60.694 -11.048,-121.39 l 6.3846,-0.5824 q 2.9177,-0.2641 5.8348,-0.5299 h 0.009 q -6.114,0.5576 -12.228,1.1129 l 14.108,-1.2827 -0.009,-3e-4 q -0.9351,0.086 -1.8703,0.1712 h 1.4e-4 q 1.3554,-0.1213 2.7102,-0.2451 h 0.008 l -0.83843,0.078 h -2.7e-4 q 7.9168,-0.719 15.83,-1.4393 5.5412,60.693 11.066,121.39 l -29.949,2.7256 z"
         id="path32" />
      <path
         d="m 887.38,1189.7 -11.048,-121.39 q 14.971,-1.3628 29.941,-2.7252 l 11.064,121.39 -29.957,2.7268 z"
         id="path33" />
    </g>
    <text
       xml:space="preserve"
       style="font-style:normal;font-variant:normal;font-weight:bold;font-stretch:normal;font-size:26.6667px;line-height:1.15;font-family:'AnonymicePro Nerd Font Mono';-inkscape-font-specification:'AnonymicePro Nerd Font Mono, Bold';font-variant-ligatures:normal;font-variant-caps:normal;font-variant-numeric:normal;font-variant-east-asian:normal;text-align:center;text-decoration-color:#000000;writing-mode:lr-tb;direction:ltr;text-anchor:middle;fill:#000000;fill-opacity:1;stroke:none;stroke-width:0.377953;stroke-linecap:round"
       x="533.92865"
       y="1302.7465"
       id="text38"
       transform="rotate(-5.5613838)"><tspan
         sodipodi:role="line"
         id="tspan38"
         x="533.92865"
         y="1302.7465">/etc/passwd</tspan></text>
    <text
       xml:space="preserve"
       style="font-style:normal;font-variant:normal;font-weight:bold;font-stretch:normal;font-size:26.6667px;line-height:1.15;font-family:'AnonymicePro Nerd Font Mono';-inkscape-font-specification:'AnonymicePro Nerd Font Mono, Bold';font-variant-ligatures:normal;font-variant-caps:normal;font-variant-numeric:normal;font-variant-east-asian:normal;text-align:center;text-decoration-color:#000000;writing-mode:lr-tb;direction:ltr;text-anchor:middle;fill:#000000;fill-opacity:1;stroke:none;stroke-width:0.377953;stroke-linecap:round"
       x="532.05981"
       y="1333.2883"
       id="text39"
       transform="rotate(-5.5613838)"><tspan
         sodipodi:role="line"
         id="tspan39"
         x="532.05981"
         y="1333.2883">/etc/shadow</tspan></text>
    <text
       xml:space="preserve"
       style="font-style:normal;font-variant:normal;font-weight:bold;font-stretch:normal;font-size:26.6667px;line-height:1.15;font-family:'AnonymicePro Nerd Font Mono';-inkscape-font-specification:'AnonymicePro Nerd Font Mono, Bold';font-variant-ligatures:normal;font-variant-caps:normal;font-variant-numeric:normal;font-variant-east-asian:normal;text-align:center;text-decoration-color:#000000;writing-mode:lr-tb;direction:ltr;text-anchor:middle;fill:#000000;fill-opacity:1;stroke:none;stroke-width:0.377953;stroke-linecap:round"
       x="533.69812"
       y="1362.1812"
       id="text40"
       transform="rotate(-5.5613838)"><tspan
         sodipodi:role="line"
         id="tspan40"
         x="533.69812"
         y="1362.1812">...</tspan></text>
  </g>
</svg>
